/* XPM */
static char * bitcoin16_xpm[] = {
"16 16 193 2",
"  	c None",
". 	c #FDBB1B",
"+ 	c #FBBA1B",
"@ 	c #FDBE18",
"# 	c #FFBD24",
"$ 	c #FFB621",
"% 	c #FCB41F",
"& 	c #FDB61D",
"* 	c #FDB81C",
"= 	c #FFBF1B",
"- 	c #FFCB1B",
"; 	c #FBAC27",
"> 	c #FCAA25",
", 	c #FBAC23",
"' 	c #FCAE22",
") 	c #FCB021",
"! 	c #FCB21F",
"~ 	c #FDB41E",
"{ 	c #FDB71D",
"] 	c #FDB91B",
"^ 	c #FFBB1A",
"/ 	c #FDC319",
"( 	c #FAA52A",
"_ 	c #FAA328",
": 	c #FAAB27",
"< 	c #FBAB26",
"[ 	c #FBAB24",
"} 	c #FBB323",
"| 	c #FCAF22",
"1 	c #FCB520",
"2 	c #FCB81F",
"3 	c #FDB51D",
"4 	c #FDB71C",
"5 	c #FCBE18",
"6 	c #FBA62D",
"7 	c #F76123",
"8 	c #F60A1A",
"9 	c #F91A1C",
"0 	c #FB6722",
"a 	c #FE041C",
"b 	c #FC8B22",
"c 	c #FF101C",
"d 	c #FF0D1C",
"e 	c #FCA21F",
"f 	c #FCB31E",
"g 	c #FEB91C",
"h 	c #FFA834",
"i 	c #EC241A",
"j 	c #EC0716",
"k 	c #EE0617",
"l 	c #F4381D",
"m 	c #F40418",
"n 	c #F70019",
"o 	c #FBAD26",
"p 	c #FC001A",
"q 	c #FF001C",
"r 	c #FCBE21",
"s 	c #FCB31F",
"t 	c #FDB51E",
"u 	c #FFC51F",
"v 	c #FD9532",
"w 	c #E10611",
"x 	c #E40A13",
"y 	c #E70914",
"z 	c #F68328",
"A 	c #EB0014",
"B 	c #EE0015",
"C 	c #F76A22",
"D 	c #F70319",
"E 	c #FA0019",
"F 	c #FBBA23",
"G 	c #FCAF21",
"H 	c #FCB120",
"I 	c #FFB920",
"J 	c #F69034",
"K 	c #F0752B",
"L 	c #DA0E10",
"M 	c #DC0D11",
"N 	c #DD010F",
"O 	c #F16A25",
"P 	c #E50B13",
"Q 	c #EA2218",
"R 	c #EA0A15",
"S 	c #ED0716",
"T 	c #EF0717",
"U 	c #F31E1A",
"V 	c #FBAC25",
"W 	c #FBAC24",
"X 	c #F58C37",
"Y 	c #FA9839",
"Z 	c #CE0409",
"` 	c #D5100E",
" .	c #E95622",
"..	c #F7902F",
"+.	c #DD1011",
"@.	c #F17126",
"#.	c #EF5F21",
"$.	c #E40312",
"%.	c #E91115",
"&.	c #FBB02A",
"*.	c #FCAE28",
"=.	c #FBA826",
"-.	c #FBAA25",
";.	c #FBA823",
">.	c #F68839",
",.	c #F68B38",
"'.	c #FA983A",
").	c #CF170D",
"!.	c #E35020",
"~.	c #DF3E1A",
"{.	c #E2401B",
"].	c #FAA032",
"^.	c #E12C17",
"/.	c #FAA22F",
"(.	c #FBA72E",
"_.	c #FBA72C",
":.	c #E94C1B",
"<.	c #EB501C",
"[.	c #F1671F",
"}.	c #F15F1D",
"|.	c #FD8C3C",
"1.	c #FA933D",
"2.	c #C31207",
"3.	c #D83E19",
"4.	c #CF1F0F",
"5.	c #DA3B18",
"6.	c #EC6F27",
"7.	c #D0050A",
"8.	c #D9521A",
"9.	c #D74416",
"0.	c #D12E11",
"a.	c #E1551A",
"b.	c #E96C1F",
"c.	c #E4521A",
"d.	c #FFB82B",
"e.	c #FF8E41",
"f.	c #F88B3E",
"g.	c #CE3815",
"h.	c #CE3514",
"i.	c #D03514",
"j.	c #D43716",
"k.	c #D63817",
"l.	c #EA6926",
"m.	c #CB4613",
"n.	c #F28D2D",
"o.	c #D45117",
"p.	c #E26B1F",
"q.	c #F99E2C",
"r.	c #E6701F",
"s.	c #FFAD2C",
"t.	c #F9873F",
"u.	c #B21500",
"v.	c #E56B2C",
"w.	c #F68A39",
"x.	c #D84D1D",
"y.	c #CA2B0F",
"z.	c #F79136",
"A.	c #F79234",
"B.	c #F89433",
"C.	c #F89631",
"D.	c #F89830",
"E.	c #F99A2F",
"F.	c #FB9D2D",
"G.	c #F58040",
"H.	c #F78540",
"I.	c #F6863E",
"J.	c #F5863C",
"K.	c #F88C3C",
"L.	c #F88F3B",
"M.	c #F68C38",
"N.	c #F78E36",
"O.	c #F79035",
"P.	c #F79333",
"Q.	c #F89532",
"R.	c #F79630",
"S.	c #FA9C2E",
"T.	c #FA8241",
"U.	c #F6813F",
"V.	c #F5823E",
"W.	c #F5843C",
"X.	c #F5863B",
"Y.	c #F6893A",
"Z.	c #F68D37",
"`.	c #F78F36",
" +	c #F99234",
".+	c #FA9835",
"++	c #FF8744",
"@+	c #FD8541",
"#+	c #F5833D",
"$+	c #F5853C",
"%+	c #F6873B",
"&+	c #FE8E3B",
"*+	c #FF953C",
"              . + @             ",
"          # $ % & * = -         ",
"      ; > , ' ) ! ~ { ] ^ /     ",
"    ( _ : < [ } | 1 2 3 4 ] 5   ",
"    6 7 8 9 0 a b c d e f & g   ",
"  h i j k l m n o p q q r s t u ",
"  v w x y z A B C m D E F G H I ",
"J K L M N O P Q R S T U V W ' ) ",
"X Y Z `  ...+.@.#.$.%.&.*.=.-.;.",
">.,.'.).!.~.{.].^./.(._.:.<.[.}.",
"  |.1.2.3.4.5.6.7.8.9.0.a.b.c.d.",
"  e.f.g.h.i.j.k.l.m.n.o.p.q.r.s.",
"    t.u.v.w.x.y.z.A.B.C.D.E.F.  ",
"    G.H.I.J.K.L.M.N.O.P.Q.R.S.  ",
"      T.U.V.W.X.Y.,.Z.`. +.+    ",
"          ++@+#+$+%+&+*+        "};
