/* XPM */
static char * bitcoin32_xpm[] = {
"32 32 640 2",
"  	c None",
". 	c #FDBB1C",
"+ 	c #FDBA1C",
"@ 	c #FCBA1B",
"# 	c #FDBC1B",
"$ 	c #FDBF19",
"% 	c #FDB61F",
"& 	c #FCB61E",
"* 	c #FCB51E",
"= 	c #FEB71E",
"- 	c #FEB71D",
"; 	c #FDB81C",
"> 	c #FEB91B",
", 	c #FEBB1B",
"' 	c #FCBC1A",
") 	c #FDBE19",
"! 	c #FEC11A",
"~ 	c #FDB423",
"{ 	c #FFBD24",
"] 	c #FFBD23",
"^ 	c #FFB621",
"/ 	c #FEB41F",
"( 	c #FCB41F",
"_ 	c #FDB51E",
": 	c #FDB61D",
"< 	c #FDB71D",
"[ 	c #FFBA1B",
"} 	c #FFBF1B",
"| 	c #FFC91C",
"1 	c #FFCB1B",
"2 	c #FEC419",
"3 	c #FDAF25",
"4 	c #FFBA27",
"5 	c #FFB525",
"6 	c #FCAD22",
"7 	c #FCAE22",
"8 	c #FCB021",
"9 	c #FCB120",
"0 	c #FCB220",
"a 	c #FCB31F",
"b 	c #FCB41E",
"c 	c #FDB71C",
"d 	c #FDB91B",
"e 	c #FEBA1A",
"f 	c #FFC51B",
"g 	c #FFCC1B",
"h 	c #FEC318",
"i 	c #FCAD27",
"j 	c #FFB829",
"k 	c #FCAA25",
"l 	c #FBAA24",
"m 	c #FBAC23",
"n 	c #FBAD23",
"o 	c #FCAF21",
"p 	c #FCB21F",
"q 	c #FDB41E",
"r 	c #FFBB1A",
"s 	c #FFCD1C",
"t 	c #FEC319",
"u 	c #FCAB29",
"v 	c #FFB02A",
"w 	c #FAA626",
"x 	c #FBA826",
"y 	c #FBA925",
"z 	c #FBAA25",
"A 	c #FBAB24",
"B 	c #FDB91A",
"C 	c #FFC71B",
"D 	c #FEC219",
"E 	c #FBA52A",
"F 	c #FFAD2C",
"G 	c #FAA328",
"H 	c #FAA728",
"I 	c #FAAB27",
"J 	c #FBAD27",
"K 	c #FBAB26",
"L 	c #FBB024",
"M 	c #FBB323",
"N 	c #FBB122",
"O 	c #FCAF22",
"P 	c #FCB520",
"Q 	c #FCB920",
"R 	c #FCB81F",
"S 	c #FDB51D",
"T 	c #FFC71C",
"U 	c #F79E2B",
"V 	c #FFAE2F",
"W 	c #FAA32A",
"X 	c #FBAF2B",
"Y 	c #FAA729",
"Z 	c #FA9527",
"` 	c #FA9226",
" .	c #FAA527",
"..	c #FBAA26",
"+.	c #FBAD26",
"@.	c #FB9E24",
"#.	c #FC9623",
"$.	c #FBA423",
"%.	c #FBAF23",
"&.	c #FCB222",
"*.	c #FCA621",
"=.	c #FC9B20",
"-.	c #FCA520",
";.	c #FCBD20",
">.	c #FCBA1F",
",.	c #FDB81B",
"'.	c #FFCB1D",
").	c #FDB919",
"!.	c #FFAA30",
"~.	c #FBA62D",
"{.	c #F9A32C",
"].	c #F76123",
"^.	c #F6241C",
"/.	c #F60A1A",
"(.	c #F8051A",
"_.	c #F91A1C",
":.	c #FA9F26",
"<.	c #FB6722",
"[.	c #FD0C1B",
"}.	c #FE041C",
"|.	c #FF101D",
"1.	c #FC8B22",
"2.	c #FC9622",
"3.	c #FF101C",
"4.	c #FF041C",
"5.	c #FF0D1C",
"6.	c #FE3D1D",
"7.	c #FCA21F",
"8.	c #FCBB1F",
"9.	c #FCB31E",
"0.	c #FEB91C",
"a.	c #FFC91D",
"b.	c #F99A2E",
"c.	c #FFAB31",
"d.	c #F8942C",
"e.	c #F1291B",
"f.	c #EF0015",
"g.	c #F10016",
"h.	c #F20117",
"i.	c #F40018",
"j.	c #F50A1A",
"k.	c #FA9E28",
"l.	c #F8231D",
"m.	c #F90019",
"n.	c #FB001A",
"o.	c #FC001B",
"p.	c #FB9B24",
"q.	c #FD5820",
"r.	c #FF001B",
"s.	c #FF001C",
"t.	c #FF1B1D",
"u.	c #FCAD20",
"v.	c #FCB620",
"w.	c #FFC21E",
"x.	c #FFA834",
"y.	c #F99A2F",
"z.	c #EC241A",
"A.	c #E90013",
"B.	c #EC0716",
"C.	c #ED0716",
"D.	c #EE0617",
"E.	c #EF0016",
"F.	c #F4381D",
"G.	c #FA9428",
"H.	c #F40418",
"I.	c #F50219",
"J.	c #F70019",
"K.	c #F81D1C",
"L.	c #FB221D",
"M.	c #FC001A",
"N.	c #FE011C",
"O.	c #FD631F",
"P.	c #FCBE21",
"Q.	c #FEB61D",
"R.	c #FFC51F",
"S.	c #F79530",
"T.	c #FFAE36",
"U.	c #EE4F21",
"V.	c #E30011",
"W.	c #E70A14",
"X.	c #E80914",
"Y.	c #E90815",
"Z.	c #EB0815",
"`.	c #EB0014",
" +	c #F46423",
".+	c #F66B24",
"++	c #F10517",
"@+	c #F20017",
"#+	c #F6481F",
"$+	c #FA9926",
"%+	c #F70219",
"&+	c #F8011A",
"*+	c #FA021A",
"=+	c #FB021B",
"-+	c #FD011B",
";+	c #FE001B",
">+	c #FE3D1E",
",+	c #FCBC22",
"'+	c #FFC320",
")+	c #FCB61D",
"!+	c #F89733",
"~+	c #FD9532",
"{+	c #E21815",
"]+	c #E10611",
"^+	c #E30B13",
"/+	c #E40A13",
"(+	c #E50A14",
"_+	c #E70914",
":+	c #E80314",
"<+	c #F68328",
"[+	c #F0391D",
"}+	c #EE0716",
"|+	c #EE0015",
"1+	c #F77523",
"2+	c #F76A22",
"3+	c #F60419",
"4+	c #F70319",
"5+	c #F8031A",
"6+	c #FA0019",
"7+	c #FB471E",
"8+	c #FBBA23",
"9+	c #FFB920",
"0+	c #F89935",
"a+	c #F47A2C",
"b+	c #DB090F",
"c+	c #DD0C11",
"d+	c #DF0C11",
"e+	c #E00C12",
"f+	c #E20B12",
"g+	c #E20712",
"h+	c #E71916",
"i+	c #F68629",
"j+	c #E81216",
"k+	c #E80514",
"l+	c #EA0715",
"m+	c #EB0615",
"n+	c #F89028",
"o+	c #F2361C",
"p+	c #EE0016",
"q+	c #F00617",
"r+	c #F20518",
"s+	c #F30518",
"t+	c #F50419",
"u+	c #F60018",
"v+	c #FA7521",
"w+	c #FBB725",
"x+	c #FBAD22",
"y+	c #FEB320",
"z+	c #F69034",
"A+	c #FA9937",
"B+	c #F0752B",
"C+	c #D70A0E",
"D+	c #DA0E10",
"E+	c #DB0E10",
"F+	c #DC0D11",
"G+	c #DE0D11",
"H+	c #DD010F",
"I+	c #E83A1B",
"J+	c #F16A25",
"K+	c #E10011",
"L+	c #E50B13",
"M+	c #E50012",
"N+	c #EA2218",
"O+	c #F78C28",
"P+	c #EA0A15",
"Q+	c #EB0515",
"R+	c #EF0717",
"S+	c #F00016",
"T+	c #F31E1A",
"U+	c #FBAC25",
"V+	c #FBAC24",
"W+	c #FBB020",
"X+	c #F68D36",
"Y+	c #F99337",
"Z+	c #F58932",
"`+	c #D61710",
" @	c #D50B0D",
".@	c #D7100F",
"+@	c #D90F0F",
"@@	c #D90C0F",
"#@	c #DB0A0F",
"$@	c #EF6C26",
"%@	c #EF6525",
"&@	c #DE0410",
"*@	c #E00611",
"=@	c #E41414",
"-@	c #F06122",
";@	c #F8982B",
">@	c #E92218",
",@	c #E70413",
"'@	c #E90915",
")@	c #EA0915",
"!@	c #EB0015",
"~@	c #EC0315",
"{@	c #F78224",
"]@	c #FBB128",
"^@	c #FBAD24",
"/@	c #FBAE23",
"(@	c #FCB022",
"_@	c #F58C37",
":@	c #F78E37",
"<@	c #FA9839",
"[@	c #E65723",
"}@	c #CE0409",
"|@	c #D10A0B",
"1@	c #D5100E",
"2@	c #D50A0D",
"3@	c #E95622",
"4@	c #F89732",
"5@	c #F7902F",
"6@	c #DC1111",
"7@	c #DD1011",
"8@	c #E9461D",
"9@	c #F17126",
"0@	c #FCAE30",
"a@	c #EF5F21",
"b@	c #E20011",
"c@	c #E40312",
"d@	c #E40011",
"e@	c #E91115",
"f@	c #F57723",
"g@	c #FBB02A",
"h@	c #FAA628",
"i@	c #FCAE28",
"j@	c #FBA727",
"k@	c #FBA823",
"l@	c #FBAC22",
"m@	c #F58B38",
"n@	c #F78C38",
"o@	c #F99539",
"p@	c #E85F26",
"q@	c #D62813",
"r@	c #D00F0C",
"s@	c #D61F11",
"t@	c #EC6B27",
"u@	c #ED6C27",
"v@	c #EA5F23",
"w@	c #D6080D",
"x@	c #E02F17",
"y@	c #EC5F22",
"z@	c #FAA130",
"A@	c #FBA931",
"B@	c #ED5B21",
"C@	c #DD000F",
"D@	c #E52417",
"E@	c #EF5520",
"F@	c #F89529",
"G@	c #FBAC2C",
"H@	c #F9A229",
"I@	c #EE601E",
"J@	c #E41514",
"K@	c #E61815",
"L@	c #E81715",
"M@	c #E91415",
"N@	c #EB1716",
"O@	c #F0371A",
"P@	c #F68839",
"Q@	c #F78B39",
"R@	c #F68B38",
"S@	c #F68D38",
"T@	c #FA983A",
"U@	c #F68D35",
"V@	c #CF170D",
"W@	c #D93316",
"X@	c #E35020",
"Y@	c #E1471D",
"Z@	c #DF3E1A",
"`@	c #D1060B",
" #	c #E2401B",
".#	c #F2802B",
"+#	c #FAA032",
"@#	c #FAA332",
"##	c #E12C17",
"$#	c #E12916",
"%#	c #FAA22F",
"&#	c #F79E2C",
"*#	c #FBA72E",
"=#	c #F9A02C",
"-#	c #FBA72C",
";#	c #F58B26",
">#	c #E94C1B",
",#	c #E94A1B",
"'#	c #EB501C",
")#	c #EF5C1D",
"!#	c #F1671F",
"~#	c #E51615",
"{#	c #F15F1D",
"]#	c #FCB626",
"^#	c #F58839",
"/#	c #F88A3A",
"(#	c #F68A39",
"_#	c #F8923A",
":#	c #EE772F",
"<#	c #C60D08",
"[#	c #DD461C",
"}#	c #E04D1F",
"|#	c #E45621",
"1#	c #D93216",
"2#	c #CC0408",
"3#	c #E85F23",
"4#	c #FA9C34",
"5#	c #FDA736",
"6#	c #EF7327",
"7#	c #D3000B",
"8#	c #EB5D21",
"9#	c #E86F22",
"0#	c #D63313",
"a#	c #E45D1D",
"b#	c #FCA62F",
"c#	c #F38C28",
"d#	c #FCAC2E",
"e#	c #E65B1C",
"f#	c #ED7120",
"g#	c #EB661E",
"h#	c #EA641D",
"i#	c #E23415",
"j#	c #FCA626",
"k#	c #F5863B",
"l#	c #FD8C3C",
"m#	c #F6883A",
"n#	c #FA933D",
"o#	c #E15924",
"p#	c #C31207",
"q#	c #DB481D",
"r#	c #D83E19",
"s#	c #DD4A1D",
"t#	c #CF1F0F",
"u#	c #C90A08",
"v#	c #DA3B18",
"w#	c #F68F31",
"x#	c #EC6F27",
"y#	c #D3180F",
"z#	c #D0050A",
"A#	c #F17A29",
"B#	c #D9521A",
"C#	c #F1892A",
"D#	c #D74416",
"E#	c #E05A1C",
"F#	c #D12E11",
"G#	c #E15B1B",
"H#	c #E1551A",
"I#	c #E2561A",
"J#	c #E96C1F",
"K#	c #E35119",
"L#	c #E4521A",
"M#	c #E9661D",
"N#	c #FFB82B",
"O#	c #F6853C",
"P#	c #FF9040",
"Q#	c #F5873B",
"R#	c #FA913E",
"S#	c #D13C17",
"T#	c #BA0901",
"U#	c #C01206",
"V#	c #C11106",
"W#	c #C31007",
"X#	c #C40E06",
"Y#	c #C50F07",
"Z#	c #C50906",
"`#	c #C91009",
" $	c #C80707",
".$	c #C80307",
"+$	c #D1180E",
"@$	c #F2872D",
"#$	c #CD4313",
"$$	c #E47022",
"%$	c #D34915",
"&$	c #CD3811",
"*$	c #D34514",
"=$	c #DB5219",
"-$	c #D95017",
";$	c #D74615",
">$	c #F08925",
",$	c #D74014",
"'$	c #D33010",
")$	c #FAA42A",
"!$	c #FFB32C",
"~$	c #F8A427",
"{$	c #FF8E41",
"]$	c #F88B3E",
"^$	c #DF5C26",
"/$	c #CE3815",
"($	c #D23D18",
"_$	c #CE3514",
":$	c #CF3414",
"<$	c #D03514",
"[$	c #D13514",
"}$	c #D43716",
"|$	c #D83D18",
"1$	c #D63817",
"2$	c #D53114",
"3$	c #EA6926",
"4$	c #F08A2E",
"5$	c #CB4613",
"6$	c #D24F17",
"7$	c #F28D2D",
"8$	c #E67423",
"9$	c #D45117",
"0$	c #E77623",
"a$	c #E26B1F",
"b$	c #E1661D",
"c$	c #F99E2C",
"d$	c #E0611C",
"e$	c #E6701F",
"f$	c #FEAB2D",
"g$	c #F4813D",
"h$	c #FF8B40",
"i$	c #F4843C",
"j$	c #F98E3F",
"k$	c #E4682B",
"l$	c #DE5E25",
"m$	c #F88E3B",
"n$	c #F9903B",
"o$	c #F8913A",
"p$	c #F9943B",
"q$	c #F48935",
"r$	c #DE5720",
"s$	c #EF7C2E",
"t$	c #FB9B39",
"u$	c #F99936",
"v$	c #F79233",
"w$	c #FA9935",
"x$	c #FC9C35",
"y$	c #FA9933",
"z$	c #FA9C32",
"A$	c #FA9C31",
"B$	c #FA9D31",
"C$	c #FA9E30",
"D$	c #FBA030",
"E$	c #F99D2E",
"F$	c #FBA32E",
"G$	c #FBA42D",
"H$	c #FFA82E",
"I$	c #F89E2A",
"J$	c #FF8C43",
"K$	c #F9873F",
"L$	c #EF7A37",
"M$	c #B21500",
"N$	c #AC0700",
"O$	c #E56B2C",
"P$	c #FA8F3E",
"Q$	c #FB953D",
"R$	c #D84D1D",
"S$	c #B00000",
"T$	c #CA2B0F",
"U$	c #FA9438",
"V$	c #F79136",
"W$	c #F79135",
"X$	c #F79234",
"Y$	c #F79333",
"Z$	c #F89433",
"`$	c #F89532",
" %	c #F89631",
".%	c #F89731",
"+%	c #F89830",
"@%	c #F89A2F",
"#%	c #F99C2E",
"$%	c #FB9D2D",
"%%	c #F47F3F",
"&%	c #FF8E45",
"*%	c #CA4117",
"=%	c #C23310",
"-%	c #EF7C37",
";%	c #F7893D",
">%	c #F6873A",
",%	c #F98E3C",
"'%	c #E76D2C",
")%	c #C3270C",
"!%	c #DC5721",
"~%	c #F99239",
"{%	c #F78E36",
"]%	c #F78F36",
"^%	c #F79035",
"/%	c #F79134",
"(%	c #F89432",
"_%	c #F89930",
":%	c #F8992F",
"<%	c #FFA933",
"[%	c #F89B2D",
"}%	c #F68140",
"|%	c #FF8A44",
"1%	c #F78540",
"2%	c #F7873F",
"3%	c #F6863E",
"4%	c #F5843C",
"5%	c #F5863C",
"6%	c #F88C3C",
"7%	c #F88D3B",
"8%	c #F88F3B",
"9%	c #F68C38",
"0%	c #F78D37",
"a%	c #F78F35",
"b%	c #F79433",
"c%	c #F79630",
"d%	c #FFA333",
"e%	c #FA9C2F",
"f%	c #F98242",
"g%	c #FF8944",
"h%	c #F5813F",
"i%	c #F5823E",
"j%	c #F5833D",
"k%	c #F5853C",
"l%	c #F6883B",
"m%	c #F68939",
"n%	c #F68A38",
"o%	c #F68D37",
"p%	c #F79332",
"q%	c #FFA035",
"r%	c #FB9A32",
"s%	c #FA8242",
"t%	c #FF8B46",
"u%	c #F6813F",
"v%	c #F5813E",
"w%	c #F6893A",
"x%	c #F99234",
"y%	c #FFA038",
"z%	c #FA9835",
"A%	c #F88143",
"B%	c #FF8845",
"C%	c #FF8743",
"D%	c #F5843D",
"E%	c #F6873B",
"F%	c #F68C37",
"G%	c #FF9739",
"H%	c #FF9A39",
"I%	c #FA9535",
"J%	c #FA8143",
"K%	c #FF8744",
"L%	c #FD8541",
"M%	c #F7833E",
"N%	c #F8893A",
"O%	c #FE8E3B",
"P%	c #FF953D",
"Q%	c #FF953C",
"R%	c #FB9139",
"S%	c #F88242",
"T%	c #F4823D",
"U%	c #F5853B",
"V%	c #F98A3B",
"W%	c #FA8D3B",
"                            . + @ # $                           ",
"                      % & * = - ; > , ' ) !                     ",
"                  ~ { ] ^ / ( _ : < ; [ } | 1 2                 ",
"              3 4 5 6 7 8 9 0 a b _ : c ; d e f g h             ",
"            i j k l m n 7 o 8 9 p a q : < ; d d r s t           ",
"          u v w x y z A m n 7 o 8 0 a b _ : < ; d B C D         ",
"        E F G H I J K y A L M N O 8 P Q R * S : c ; d T $       ",
"      U V W X Y Z `  ...+.@.#.$.%.&.*.=.-.;.>.q : < ; ,.'.).    ",
"      !.~.{.].^./.(._.:.<.[.}.|.1.2.3.4.5.6.7.8.9._ : c 0.a.    ",
"    b.c.d.e.f.g.h.i.j.k.l.m.n.o.p.q.r.s.s.s.t.u.v.a q S : w.,.  ",
"    x.y.z.A.B.C.D.E.F.G.H.I.J.K.+.L.M.N.s.s.s.O.P.0 a ( _ Q.R.  ",
"  S.T.U.V.W.X.Y.Z.`. +.+f.++@+#+$+%+&+*+=+-+;+>+,+8 9 0 a b '+)+",
"  !+~+{+]+^+/+(+_+:+<+[+`.}+|+1+2+@+H.3+4+5+6+7+8+7 o 8 9 p 9+b ",
"  0+a+b+c+d+e+f+g+h+i+j+k+l+m+n+o+p+q+r+s+t+u+v+w+m x+7 o 9 y+9.",
"z+A+B+C+D+E+F+G+H+I+J+K+L+M+N+O+P+Q+C.}+R+S+T+..U+A V+n 7 O 8 W+",
"X+Y+Z+`+ @.@+@@@#@$@%@&@*@=@-@;@>@,@'@)@!@~@{@]@x K U+^@/@%.(@o ",
"_@:@<@[@}@|@1@2@3@4@5@6@7@8@9@0@a@b@c@d@e@f@g@h@i@j@x y z A k@l@",
"m@n@:@o@p@q@r@s@t@u@v@w@x@y@z@A@B@C@D@E@F@G@W H@I@J@K@L@M@N@O@m ",
"P@Q@R@S@T@U@V@W@X@Y@Z@`@ #.#+#@###$#%#&#*#=#-#;#>#,#'#)#!#~#{#]#",
"  ^#/#(#_#:#<#[#}#|#1#2#3#4#5#6#7#8#9#0#a#b#c#d#e#f#g#h#H i#j#K ",
"  k#l#m#n#o#p#q#r#s#t#u#v#w#x#y#z#A#B#C#D#E#F#G#H#I#J#K#L#M#N#w ",
"  O#P#Q#R#S#T#U#V#W#X#Y#Z#`# $.$+$@$#$$$%$&$*$=$-$;$>$,$'$)$!$~$",
"    {$O#]$^$/$($_$:$<$[$}$|$1$2$3$4$5$6$7$8$9$0$a$b$c$d$e$f$F   ",
"    g$h$i$j$k$l$m$n$o$p$q$r$s$t$u$v$w$x$y$z$A$B$C$D$E$F$G$H$I$  ",
"      J$K$L$M$N$O$P$(#Q$R$S$T$U$V$W$X$Y$Z$`$ %.%+%@%y.#%$%!.    ",
"      %%&%g$*%=%-%;%>%,%'%)%!%~%{%]%^%/%X$Y$(%`$ %+%_%:%<%[%    ",
"        }%|%1%2%3%4%5%k#6%7%8%R@9%0%{%a%^%/%Y$b%`$ %c%d%e%      ",
"          f%g%h%i%j%4%k%k#l%m#m%n%9%o%:@]%^%/%X$Y$p%q%r%        ",
"            s%t%u%v%i%j%4%k%k#m#w%(#R@9%o%{%]%^%x%y%z%          ",
"              A%B%C%h%v%j%D%k%k#E%m#m%(#R@F%:@G%H%I%            ",
"                  J%K%|%L%M%j%4%k%k#E%N%O%P%Q%R%                ",
"                      S%}%h%v%T%j%i$U%E%V%W%                    "};
